<?xml version="1.0" encoding="utf-8"?>
<!-- Generator: Adobe Illustrator 15.1.0, SVG Export Plug-In . SVG Version: 6.00 Build 0)  -->
<!DOCTYPE svg PUBLIC "-//W3C//DTD SVG 1.1//EN" "http://www.w3.org/Graphics/SVG/1.1/DTD/svg11.dtd">
<svg version="1.1" id="Camada_1" xmlns="http://www.w3.org/2000/svg" xmlns:xlink="http://www.w3.org/1999/xlink" x="0px" y="0px"
	 width="312.833px" height="315.334px" viewBox="0 0 312.833 315.334" enable-background="new 0 0 312.833 315.334"
	 xml:space="preserve">
<circle fill="#BDBFED" cx="155.305" cy="158.471" r="154.138"/>
<rect x="69.167" y="64.962" width="177" height="124.741"/>
<rect x="143.667" y="180.332" width="28" height="50"/>
<rect x="95.667" y="230.334" transform="matrix(1 0.0051 -0.0051 1 1.2371 -0.7813)" width="119.001" height="27.998"/>
<rect x="89.667" y="85.333" fill="#FFFFFF" width="131" height="94.999"/>
<ellipse fill="#FFFFFF" cx="158.167" cy="211.332" rx="8" ry="6"/>
<polygon fill="#BFFFC4" points="134.044,278.582 127.511,285.215 129.721,294.26 120.875,290.207 112.568,294.74 113.634,285.605 
	106.29,279.363 115.796,277.768 119.563,269.375 124.372,277.525 "/>
<polygon fill="#BFFFC4" points="164.363,295.881 155.872,290.68 146.774,294.725 149.097,285.043 142.437,277.641 152.363,276.857 
	157.346,268.236 161.158,277.434 170.897,279.508 163.326,285.977 "/>
<polygon fill="#BFFFD9" points="199.491,294.217 191.551,290.146 183.229,293.365 185.188,285.73 178.896,279.922 188.045,279.271 
	192.478,272.467 196.175,279.699 205.207,281.301 198.344,286.42 "/>
<g id="XMLID_2_">
	<g>
		<path fill="#FFBFDA" d="M190.167,148.283c0,0.1,0,0.21,0,0.31c-0.04,0-0.08,0-0.13,0c-0.39,1-1.88-0.18-2.8-0.61
			c-2.24-1.02-4.971-2.18-6.761-3.03c-3.22,1.59-5.6,3.84-5.609,7.979c2.979,1.471,6.21,2.761,9.18,4.24
			c-0.41,0.351-0.52,0.94-0.89,1.32c-10.23,0.22-16.91-2.37-16.2-10.81c-2.21-3.02-5.76-5.88-8.92-8.49
			c-0.48-0.39-3.34-2.14-3.32-2.62c0.01-0.17,1.521-1.1,1.79-1.32c1.891-1.5,3.46-2.89,5.23-4.14c2.16,1.45,3.68,3.08,5.859,4.65
			c1.88,1.35,4.36,3.47,6.761,3.94c2.17,0.42,4.399,0.2,6.119,0.6C185.617,141.513,188.097,144.243,190.167,148.283z"/>
		<path fill="#FFBFDA" d="M183.537,107.483c0.92,0.71,1.96,1.34,2.68,2.22c-2.21,2.19-4.04,4.68-6.25,6.87
			c-3.359,0.18-4.52,1.59-6.5,3.13c-7.6,5.9-15.04,11.98-22.189,17.78c0.75,0.82,1.43,1.69,2.04,2.62c-0.561,0.5-1.11,1-1.78,1.42
			c-4.96,0.41-6.91,3.21-7.78,6.86c-4.7,3.891-9.6,7.62-14.28,11.521c-0.34,0-0.68,0-1.02,0c-4.38-0.91-7.13-3.11-8.29-6.57
			c0-0.27,0-0.53,0-0.8c3.58-2.8,7.26-5.66,10.97-8.59c1.13-0.9,2.46-2.46,3.69-2.83c0.75-0.22,1.6-0.11,2.3-0.3
			c3.19-0.88,6.04-2.83,6.25-5.96c0.73-0.36,1.07-1.03,1.91-1.31c0.93,0.67,2.229,1.06,3.189,1.71
			c7.381-5.68,15.011-11.79,22.44-17.67c2.03-1.61,3.65-2.68,3.95-5.15C177.617,110.673,180.757,109.223,183.537,107.483z"/>
		<path fill="#FFBFDA" d="M156.507,126.973c-0.01,0.16-1.43,1.03-1.79,1.32c-1.859,1.47-3.649,3.11-5.35,4.14
			c-1.8-1.41-3.3-2.76-5.36-4.25c-1.38-0.99-4.32-3.23-6.12-3.63c-1.06-0.24-2.3-0.13-3.18-0.2c-5.34-0.43-8.75-2.33-10.97-5.26
			c-0.771-1.01-2.021-2.49-1.4-3.94c3.16,1.34,6.12,2.83,9.311,4.15c3.22-1.56,5.5-3.86,5.609-7.88c-2.88-1.6-6.3-2.76-9.18-4.35
			c0.229-0.45,0.59-0.8,0.76-1.31c0.85,0,1.7,0,2.55,0c7.33,0.34,12.261,2.09,13.391,6.97c0.239,1.04-0.091,2.33,0.38,3.84
			c0.26,0.84,1.55,2.09,2.42,2.93c2.109,2.03,3.57,3.22,5.87,5.05C154.087,125.063,156.507,126.573,156.507,126.973z"/>
	</g>
	<g>
		<path fill="none" stroke="#000000" stroke-width="0.5" stroke-linecap="round" stroke-linejoin="round" d="M128.457,159.903
			c-2.76,0-5.53,0-8.29,0c0-2.19,0-4.38,0-6.57"/>
		<path fill="none" stroke="#000000" stroke-width="0.5" stroke-linecap="round" stroke-linejoin="round" d="M190.167,148.283
			c0,0.1,0,0.21,0,0.31"/>
		<path fill="none" stroke="#000000" stroke-width="0.5" stroke-linecap="round" stroke-linejoin="round" d="M120.167,153.333
			c0-0.27,0-0.53,0-0.8"/>
		<path fill="none" stroke="#000000" stroke-width="0.5" stroke-linecap="round" stroke-linejoin="round" d="M128.457,159.903
			c-4.38-0.91-7.13-3.11-8.29-6.57"/>
		<path fill="none" stroke="#000000" stroke-width="0.5" stroke-linecap="round" stroke-linejoin="round" d="M129.477,159.903
			c-0.34,0-0.68,0-1.02,0"/>
		<path fill="none" stroke="#000000" stroke-width="0.5" stroke-linecap="round" stroke-linejoin="round" d="M128.837,105.763
			c0.85,0,1.7,0,2.55,0"/>
		<path fill="none" stroke="#000000" stroke-width="0.5" stroke-linecap="round" stroke-linejoin="round" d="M120.167,152.533
			c0-15.59,0-31.18,0-46.77c2.89,0,5.78,0,8.67,0"/>
		<path fill="none" stroke="#000000" stroke-width="0.5" stroke-linecap="round" stroke-linejoin="round" d="M129.477,159.903
			c4.681-3.9,9.58-7.63,14.28-11.521c0.87-3.65,2.82-6.45,7.78-6.86c0.67-0.42,1.22-0.92,1.78-1.42c-0.61-0.93-1.29-1.8-2.04-2.62
			c7.149-5.8,14.59-11.88,22.189-17.78c1.98-1.54,3.141-2.95,6.5-3.13c2.21-2.19,4.04-4.68,6.25-6.87
			c-0.72-0.88-1.76-1.51-2.68-2.22c-2.78,1.74-5.92,3.19-8.67,4.95c-0.3,2.47-1.92,3.54-3.95,5.15
			c-7.43,5.88-15.06,11.99-22.44,17.67c-0.96-0.65-2.26-1.04-3.189-1.71c-0.84,0.28-1.18,0.95-1.91,1.31
			c-0.21,3.13-3.06,5.08-6.25,5.96c-0.7,0.19-1.55,0.08-2.3,0.3c-1.23,0.37-2.561,1.93-3.69,2.83c-3.71,2.93-7.39,5.791-10.97,8.59"
			/>
		<path fill="none" stroke="#000000" stroke-width="0.5" stroke-linecap="round" stroke-linejoin="round" d="M190.167,148.593
			c0,3.771,0,7.54,0,11.311c-20.23,0-40.46,0-60.69,0"/>
		<path fill="none" stroke="#000000" stroke-width="0.5" stroke-linecap="round" stroke-linejoin="round" d="M190.167,148.283
			c-2.07-4.04-4.55-6.77-9.69-7.98c-1.72-0.4-3.949-0.18-6.119-0.6c-2.4-0.47-4.881-2.59-6.761-3.94
			c-2.18-1.57-3.699-3.2-5.859-4.65c-1.771,1.25-3.34,2.64-5.23,4.14c-0.27,0.22-1.78,1.15-1.79,1.32
			c-0.02,0.48,2.84,2.23,3.32,2.62c3.16,2.61,6.71,5.47,8.92,8.49c-0.71,8.44,5.97,11.03,16.2,10.81c0.37-0.38,0.479-0.97,0.89-1.32
			c-2.97-1.479-6.2-2.77-9.18-4.24c0.01-4.14,2.39-6.39,5.609-7.979c1.79,0.85,4.521,2.01,6.761,3.03c0.92,0.43,2.41,1.61,2.8,0.61
			c0.05,0,0.09,0,0.13,0"/>
		<path fill="none" stroke="#000000" stroke-width="0.5" stroke-linecap="round" stroke-linejoin="round" d="M131.387,105.763
			c19.59,0,39.19,0,58.78,0c0,14.18,0,28.35,0,42.52"/>
		<path fill="none" stroke="#000000" stroke-width="0.5" stroke-linecap="round" stroke-linejoin="round" d="M128.837,105.763
			c-0.17,0.51-0.53,0.86-0.76,1.31c2.88,1.59,6.3,2.75,9.18,4.35c-0.109,4.02-2.39,6.32-5.609,7.88c-3.19-1.32-6.15-2.81-9.311-4.15
			c-0.62,1.45,0.63,2.93,1.4,3.94c2.22,2.93,5.63,4.83,10.97,5.26c0.88,0.07,2.12-0.04,3.18,0.2c1.8,0.4,4.74,2.64,6.12,3.63
			c2.061,1.49,3.561,2.84,5.36,4.25c1.7-1.03,3.49-2.67,5.35-4.14c0.36-0.29,1.78-1.16,1.79-1.32c0-0.4-2.42-1.91-3.06-2.42
			c-2.3-1.83-3.761-3.02-5.87-5.05c-0.87-0.84-2.16-2.09-2.42-2.93c-0.471-1.51-0.141-2.8-0.38-3.84
			c-1.13-4.88-6.061-6.63-13.391-6.97"/>
	</g>
</g>
</svg>
